<?xml version="1.0" encoding="UTF-8" standalone="no"?>
<!-- Created with Inkscape (http://www.inkscape.org/) -->

<svg
   xmlns:dc="http://purl.org/dc/elements/1.1/"
   xmlns:cc="http://creativecommons.org/ns#"
   xmlns:rdf="http://www.w3.org/1999/02/22-rdf-syntax-ns#"
   xmlns:svg="http://www.w3.org/2000/svg"
   xmlns="http://www.w3.org/2000/svg"
   xmlns:sodipodi="http://sodipodi.sourceforge.net/DTD/sodipodi-0.dtd"
   xmlns:inkscape="http://www.inkscape.org/namespaces/inkscape"
   version="1.0"
   width="1400"
   height="990"
   id="svg4325"
   inkscape:version="0.91 r13725"
   sodipodi:docname="Bubble-chamber.svg">
  <metadata
     id="metadata97">
    <rdf:RDF>
      <cc:Work
         rdf:about="">
        <dc:format>image/svg+xml</dc:format>
        <dc:type
           rdf:resource="http://purl.org/dc/dcmitype/StillImage" />
        <dc:title></dc:title>
      </cc:Work>
    </rdf:RDF>
  </metadata>
  <sodipodi:namedview
     pagecolor="#ffffff"
     bordercolor="#666666"
     borderopacity="1"
     objecttolerance="10"
     gridtolerance="10"
     guidetolerance="10"
     inkscape:pageopacity="0"
     inkscape:pageshadow="2"
     inkscape:window-width="1920"
     inkscape:window-height="1017"
     id="namedview95"
     showgrid="false"
     inkscape:zoom="0.50761126"
     inkscape:cx="885.83307"
     inkscape:cy="726.96067"
     inkscape:window-x="-8"
     inkscape:window-y="-8"
     inkscape:window-maximized="1"
     inkscape:current-layer="layer1" />
  <defs
     id="defs4327">
    <marker
       refX="0"
       refY="0"
       orient="auto"
       style="overflow:visible"
       id="Arrow1Lend">
      <path
         d="M 0,0 5,-5 -12.5,0 5,5 0,0 Z"
         transform="matrix(-0.8,0,0,-0.8,-10,0)"
         style="fill-rule:evenodd;stroke:#000000;stroke-width:1pt;marker-start:none"
         id="path3429"
         inkscape:connector-curvature="0" />
    </marker>
    <marker
       refX="0"
       refY="0"
       orient="auto"
       style="overflow:visible"
       id="Arrow2Lend">
      <path
         d="M 8.7185878,4.0337352 -2.2072895,0.01601326 8.7185884,-4.0017078 c -1.7454984,2.3720609 -1.7354408,5.6174519 -6e-7,8.035443 z"
         transform="matrix(-1.1,0,0,-1.1,-1.1,0)"
         style="font-size:12px;fill-rule:evenodd;stroke-width:0.625;stroke-linejoin:round"
         id="path3411"
         inkscape:connector-curvature="0" />
    </marker>
    <marker
       refX="0"
       refY="0"
       orient="auto"
       style="overflow:visible"
       id="Arrow1Mend">
      <path
         d="M 0,0 5,-5 -12.5,0 5,5 0,0 Z"
         transform="matrix(-0.4,0,0,-0.4,-4,0)"
         style="fill-rule:evenodd;stroke:#000000;stroke-width:1pt;marker-start:none"
         id="path3423"
         inkscape:connector-curvature="0" />
    </marker>
  </defs>
  <g
     transform="translate(194.3125,-165.71377)"
     id="layer1">
    <path
       inkscape:connector-curvature="0"
       d="m 833.5736,760.65409 c 0,-64.17516 -6.47469,-122.31328 -16.75,-163.9375 -5.13766,-20.81211 -11.29369,-37.50765 -17.6875,-48.46875 -5.97696,-10.24648 -11.58482,-14.44441 -15.90625,-14.96875 l -487.4172,0 c 2.37829,2.79085 -7.61527,6.05193 -5.45812,9.75 7.20767,12.35634 -23.34654,29.77983 -18.06185,51.1875 10.56936,42.81535 -16.9913,101.56581 -16.9913,166.4375 0,0.6722 0.001,1.32912 0,2 -2.27886,42.62057 4.00509,82.58437 8.36083,116.9375 -2.51952,17.33108 12.13274,33.31265 8.63047,47.5 -5.28467,21.40767 25.26952,38.83117 18.06185,51.1875 -2.15715,3.69807 9.19981,6.95915 6.82152,9.75 l 486.0538,0 c 4.32144,-0.52434 9.92929,-4.72227 15.90625,-14.96875 1.4746,-2.52795 2.93527,-5.38187 4.375,-8.5 3.27168,-8.01599 6.49852,-16.81611 9.59375,-26.3125 0.0666,-0.20426 0.12103,-0.42011 0.1875,-0.625 1.21579,-4.14933 2.40509,-8.4693 3.53125,-13.03125 10.27531,-41.62422 16.75,-99.76233 16.75,-163.9375 z M 282.14642,952.68534 c -7.0813,15.62391 45.90407,27.33027 40.30218,34.28125 3.28708,-2.75202 -38.38403,-6.9086 -35.08601,-12.5625 3.40293,-5.83375 -8.3122,-13.15009 -5.21617,-21.71875 z"
       style="fill:#87cfff;fill-opacity:1;fill-rule:evenodd;stroke:none;stroke-width:1px;stroke-linecap:butt;stroke-linejoin:miter;stroke-opacity:1"
       id="path4593" />
    <path
       inkscape:connector-curvature="0"
       d="m 294.1986,988.02909 10.1875,0 16.6875,0 c 3.7263,-2.69082 7.52719,-7.1893 11.28125,-13.625 6.61799,-11.34543 12.82515,-28.22464 18,-49.1875 10.34975,-41.92577 16.78126,-100.21569 16.78125,-164.5625 0,-64.34683 -6.43147,-122.66798 -16.78125,-164.59375 -5.17487,-20.96288 -11.38201,-37.81082 -18,-49.15625 -3.75406,-6.4357 -7.55495,-10.93417 -11.28125,-13.625 l -16.6875,0 -10.1875,0 -45.59375,0 c -3.72631,2.69083 -7.52721,7.18931 -11.28125,13.625 -6.618,11.34543 -12.76264,28.19336 -17.9375,49.15625 -10.34974,41.92578 -16.84373,100.24691 -16.84375,164.59375 0,64.34682 6.49399,122.6367 16.84375,164.5625 5.17487,20.96289 11.31948,37.84209 17.9375,49.1875 3.75405,6.4357 7.55495,10.93418 11.28125,13.625 l 45.59375,0 z m -55.75,-454.75 -1.21875,0 c -1.79037,2.47106 -3.56799,5.57668 -5.3125,9.25 2.06903,-3.49445 4.26066,-6.58599 6.53125,-9.25 z m 0,454.75 c -1.75217,-2.05577 -3.46164,-4.37713 -5.09375,-6.9375 1.4256,2.74003 2.84098,5.0864 4.25,6.9375 l 0.84375,0 z m -40.875,-169.9375 c -1.13929,-18.39519 -1.75,-37.62155 -1.75,-57.4375 0,-9.49995 0.13635,-18.85672 0.40625,-28.0625 -0.7309,10.95988 -1.191,21.3289 -1.34375,30.75 -0.25846,15.94046 0.75687,34.80421 2.6875,54.75 z"
       style="fill:#b3b3b3;fill-opacity:1;fill-rule:evenodd;stroke:#000000;stroke-width:1px;stroke-linecap:butt;stroke-linejoin:miter;stroke-opacity:1"
       id="path4538" />
    <g
       transform="matrix(0,1,-1,0,913.54236,368.46659)"
       id="g4427">
      <path
         inkscape:connector-curvature="0"
         d="m 118.73529,165.44551 a 23.387255,23.387255 0 1 1 -46.774507,0 23.387255,23.387255 0 1 1 46.774507,0 z"
         transform="translate(3.5980392,-3.5980392)"
         style="fill:#ffd600;fill-opacity:1;stroke:#000000;stroke-width:3;stroke-linecap:round;stroke-linejoin:miter;stroke-miterlimit:4;stroke-dasharray:none;stroke-dashoffset:0;stroke-opacity:1"
         id="path4423" />
      <path
         inkscape:connector-curvature="0"
         d="m 118.73529,165.44551 a 23.387255,23.387255 0 1 1 -46.774507,0 23.387255,23.387255 0 1 1 46.774507,0 z"
         transform="translate(588.27941,-3.5980392)"
         style="fill:#ffd600;fill-opacity:1;stroke:#000000;stroke-width:3;stroke-linecap:round;stroke-linejoin:miter;stroke-miterlimit:4;stroke-dasharray:none;stroke-dashoffset:0;stroke-opacity:1"
         id="path4425" />
    </g>
    <g
       transform="matrix(0,1,-1,0,210.12568,368.46659)"
       id="g4431">
      <path
         inkscape:connector-curvature="0"
         d="m 118.73529,165.44551 a 23.387255,23.387255 0 1 1 -46.774507,0 23.387255,23.387255 0 1 1 46.774507,0 z"
         transform="translate(3.5980392,-3.5980392)"
         style="fill:#ffd600;fill-opacity:1;stroke:#000000;stroke-width:3;stroke-linecap:round;stroke-linejoin:miter;stroke-miterlimit:4;stroke-dasharray:none;stroke-dashoffset:0;stroke-opacity:1"
         id="path4433" />
      <path
         inkscape:connector-curvature="0"
         d="m 118.73529,165.44551 a 23.387255,23.387255 0 1 1 -46.774507,0 23.387255,23.387255 0 1 1 46.774507,0 z"
         transform="translate(588.27941,-3.5980392)"
         style="fill:#ffd600;fill-opacity:1;stroke:#000000;stroke-width:3;stroke-linecap:round;stroke-linejoin:miter;stroke-miterlimit:4;stroke-dasharray:none;stroke-dashoffset:0;stroke-opacity:1"
         id="path4435" />
    </g>
    <g
       transform="matrix(0,1,-1,0,854.9243,368.46659)"
       id="g4437">
      <path
         inkscape:connector-curvature="0"
         d="m 118.73529,165.44551 a 23.387255,23.387255 0 1 1 -46.774507,0 23.387255,23.387255 0 1 1 46.774507,0 z"
         transform="translate(3.5980392,-3.5980392)"
         style="fill:#ffd600;fill-opacity:1;stroke:#000000;stroke-width:3;stroke-linecap:round;stroke-linejoin:miter;stroke-miterlimit:4;stroke-dasharray:none;stroke-dashoffset:0;stroke-opacity:1"
         id="path4439" />
      <path
         inkscape:connector-curvature="0"
         d="m 118.73529,165.44551 a 23.387255,23.387255 0 1 1 -46.774507,0 23.387255,23.387255 0 1 1 46.774507,0 z"
         transform="translate(588.27941,-3.5980392)"
         style="fill:#ffd600;fill-opacity:1;stroke:#000000;stroke-width:3;stroke-linecap:round;stroke-linejoin:miter;stroke-miterlimit:4;stroke-dasharray:none;stroke-dashoffset:0;stroke-opacity:1"
         id="path4441" />
    </g>
    <g
       transform="matrix(0,1,-1,0,796.30625,368.46659)"
       id="g4443">
      <path
         inkscape:connector-curvature="0"
         d="m 118.73529,165.44551 a 23.387255,23.387255 0 1 1 -46.774507,0 23.387255,23.387255 0 1 1 46.774507,0 z"
         transform="translate(3.5980392,-3.5980392)"
         style="fill:#ffd600;fill-opacity:1;stroke:#000000;stroke-width:3;stroke-linecap:round;stroke-linejoin:miter;stroke-miterlimit:4;stroke-dasharray:none;stroke-dashoffset:0;stroke-opacity:1"
         id="path4445" />
      <path
         inkscape:connector-curvature="0"
         d="m 118.73529,165.44551 a 23.387255,23.387255 0 1 1 -46.774507,0 23.387255,23.387255 0 1 1 46.774507,0 z"
         transform="translate(588.27941,-3.5980392)"
         style="fill:#ffd600;fill-opacity:1;stroke:#000000;stroke-width:3;stroke-linecap:round;stroke-linejoin:miter;stroke-miterlimit:4;stroke-dasharray:none;stroke-dashoffset:0;stroke-opacity:1"
         id="path4447" />
    </g>
    <g
       transform="matrix(0,1,-1,0,737.68819,368.46659)"
       id="g4449">
      <path
         inkscape:connector-curvature="0"
         d="m 118.73529,165.44551 a 23.387255,23.387255 0 1 1 -46.774507,0 23.387255,23.387255 0 1 1 46.774507,0 z"
         transform="translate(3.5980392,-3.5980392)"
         style="fill:#ffd600;fill-opacity:1;stroke:#000000;stroke-width:3;stroke-linecap:round;stroke-linejoin:miter;stroke-miterlimit:4;stroke-dasharray:none;stroke-dashoffset:0;stroke-opacity:1"
         id="path4451" />
      <path
         inkscape:connector-curvature="0"
         d="m 118.73529,165.44551 a 23.387255,23.387255 0 1 1 -46.774507,0 23.387255,23.387255 0 1 1 46.774507,0 z"
         transform="translate(588.27941,-3.5980392)"
         style="fill:#ffd600;fill-opacity:1;stroke:#000000;stroke-width:3;stroke-linecap:round;stroke-linejoin:miter;stroke-miterlimit:4;stroke-dasharray:none;stroke-dashoffset:0;stroke-opacity:1"
         id="path4453" />
    </g>
    <g
       transform="matrix(0,1,-1,0,679.07014,368.46659)"
       id="g4455">
      <path
         inkscape:connector-curvature="0"
         d="m 118.73529,165.44551 a 23.387255,23.387255 0 1 1 -46.774507,0 23.387255,23.387255 0 1 1 46.774507,0 z"
         transform="translate(3.5980392,-3.5980392)"
         style="fill:#ffd600;fill-opacity:1;stroke:#000000;stroke-width:3;stroke-linecap:round;stroke-linejoin:miter;stroke-miterlimit:4;stroke-dasharray:none;stroke-dashoffset:0;stroke-opacity:1"
         id="path4457" />
      <path
         inkscape:connector-curvature="0"
         d="m 118.73529,165.44551 a 23.387255,23.387255 0 1 1 -46.774507,0 23.387255,23.387255 0 1 1 46.774507,0 z"
         transform="translate(588.27941,-3.5980392)"
         style="fill:#ffd600;fill-opacity:1;stroke:#000000;stroke-width:3;stroke-linecap:round;stroke-linejoin:miter;stroke-miterlimit:4;stroke-dasharray:none;stroke-dashoffset:0;stroke-opacity:1"
         id="path4459" />
    </g>
    <g
       transform="matrix(0,1,-1,0,620.45208,368.46659)"
       id="g4461">
      <path
         inkscape:connector-curvature="0"
         d="m 118.73529,165.44551 a 23.387255,23.387255 0 1 1 -46.774507,0 23.387255,23.387255 0 1 1 46.774507,0 z"
         transform="translate(3.5980392,-3.5980392)"
         style="fill:#ffd600;fill-opacity:1;stroke:#000000;stroke-width:3;stroke-linecap:round;stroke-linejoin:miter;stroke-miterlimit:4;stroke-dasharray:none;stroke-dashoffset:0;stroke-opacity:1"
         id="path4463" />
      <path
         inkscape:connector-curvature="0"
         d="m 118.73529,165.44551 a 23.387255,23.387255 0 1 1 -46.774507,0 23.387255,23.387255 0 1 1 46.774507,0 z"
         transform="translate(588.27941,-3.5980392)"
         style="fill:#ffd600;fill-opacity:1;stroke:#000000;stroke-width:3;stroke-linecap:round;stroke-linejoin:miter;stroke-miterlimit:4;stroke-dasharray:none;stroke-dashoffset:0;stroke-opacity:1"
         id="path4465" />
    </g>
    <g
       transform="matrix(0,1,-1,0,561.83402,368.46659)"
       id="g4467">
      <path
         inkscape:connector-curvature="0"
         d="m 118.73529,165.44551 a 23.387255,23.387255 0 1 1 -46.774507,0 23.387255,23.387255 0 1 1 46.774507,0 z"
         transform="translate(3.5980392,-3.5980392)"
         style="fill:#ffd600;fill-opacity:1;stroke:#000000;stroke-width:3;stroke-linecap:round;stroke-linejoin:miter;stroke-miterlimit:4;stroke-dasharray:none;stroke-dashoffset:0;stroke-opacity:1"
         id="path4469" />
      <path
         inkscape:connector-curvature="0"
         d="m 118.73529,165.44551 a 23.387255,23.387255 0 1 1 -46.774507,0 23.387255,23.387255 0 1 1 46.774507,0 z"
         transform="translate(588.27941,-3.5980392)"
         style="fill:#ffd600;fill-opacity:1;stroke:#000000;stroke-width:3;stroke-linecap:round;stroke-linejoin:miter;stroke-miterlimit:4;stroke-dasharray:none;stroke-dashoffset:0;stroke-opacity:1"
         id="path4471" />
    </g>
    <g
       transform="matrix(0,1,-1,0,503.21596,368.46659)"
       id="g4473">
      <path
         inkscape:connector-curvature="0"
         d="m 118.73529,165.44551 a 23.387255,23.387255 0 1 1 -46.774507,0 23.387255,23.387255 0 1 1 46.774507,0 z"
         transform="translate(3.5980392,-3.5980392)"
         style="fill:#ffd600;fill-opacity:1;stroke:#000000;stroke-width:3;stroke-linecap:round;stroke-linejoin:miter;stroke-miterlimit:4;stroke-dasharray:none;stroke-dashoffset:0;stroke-opacity:1"
         id="path4475" />
      <path
         inkscape:connector-curvature="0"
         d="m 118.73529,165.44551 a 23.387255,23.387255 0 1 1 -46.774507,0 23.387255,23.387255 0 1 1 46.774507,0 z"
         transform="translate(588.27941,-3.5980392)"
         style="fill:#ffd600;fill-opacity:1;stroke:#000000;stroke-width:3;stroke-linecap:round;stroke-linejoin:miter;stroke-miterlimit:4;stroke-dasharray:none;stroke-dashoffset:0;stroke-opacity:1"
         id="path4477" />
    </g>
    <g
       transform="matrix(0,1,-1,0,444.59791,368.46659)"
       id="g4479">
      <path
         inkscape:connector-curvature="0"
         d="m 118.73529,165.44551 a 23.387255,23.387255 0 1 1 -46.774507,0 23.387255,23.387255 0 1 1 46.774507,0 z"
         transform="translate(3.5980392,-3.5980392)"
         style="fill:#ffd600;fill-opacity:1;stroke:#000000;stroke-width:3;stroke-linecap:round;stroke-linejoin:miter;stroke-miterlimit:4;stroke-dasharray:none;stroke-dashoffset:0;stroke-opacity:1"
         id="path4481" />
      <path
         inkscape:connector-curvature="0"
         d="m 118.73529,165.44551 a 23.387255,23.387255 0 1 1 -46.774507,0 23.387255,23.387255 0 1 1 46.774507,0 z"
         transform="translate(588.27941,-3.5980392)"
         style="fill:#ffd600;fill-opacity:1;stroke:#000000;stroke-width:3;stroke-linecap:round;stroke-linejoin:miter;stroke-miterlimit:4;stroke-dasharray:none;stroke-dashoffset:0;stroke-opacity:1"
         id="path4483" />
    </g>
    <g
       transform="matrix(0,1,-1,0,385.97985,368.46659)"
       id="g4485">
      <path
         inkscape:connector-curvature="0"
         d="m 118.73529,165.44551 a 23.387255,23.387255 0 1 1 -46.774507,0 23.387255,23.387255 0 1 1 46.774507,0 z"
         transform="translate(3.5980392,-3.5980392)"
         style="fill:#ffd600;fill-opacity:1;stroke:#000000;stroke-width:3;stroke-linecap:round;stroke-linejoin:miter;stroke-miterlimit:4;stroke-dasharray:none;stroke-dashoffset:0;stroke-opacity:1"
         id="path4487" />
      <path
         inkscape:connector-curvature="0"
         d="m 118.73529,165.44551 a 23.387255,23.387255 0 1 1 -46.774507,0 23.387255,23.387255 0 1 1 46.774507,0 z"
         transform="translate(588.27941,-3.5980392)"
         style="fill:#ffd600;fill-opacity:1;stroke:#000000;stroke-width:3;stroke-linecap:round;stroke-linejoin:miter;stroke-miterlimit:4;stroke-dasharray:none;stroke-dashoffset:0;stroke-opacity:1"
         id="path4489" />
    </g>
    <g
       transform="matrix(0,1,-1,0,327.36179,368.46659)"
       id="g4491">
      <path
         inkscape:connector-curvature="0"
         d="m 118.73529,165.44551 a 23.387255,23.387255 0 1 1 -46.774507,0 23.387255,23.387255 0 1 1 46.774507,0 z"
         transform="translate(3.5980392,-3.5980392)"
         style="fill:#ffd600;fill-opacity:1;stroke:#000000;stroke-width:3;stroke-linecap:round;stroke-linejoin:miter;stroke-miterlimit:4;stroke-dasharray:none;stroke-dashoffset:0;stroke-opacity:1"
         id="path4493" />
      <path
         inkscape:connector-curvature="0"
         d="m 118.73529,165.44551 a 23.387255,23.387255 0 1 1 -46.774507,0 23.387255,23.387255 0 1 1 46.774507,0 z"
         transform="translate(588.27941,-3.5980392)"
         style="fill:#ffd600;fill-opacity:1;stroke:#000000;stroke-width:3;stroke-linecap:round;stroke-linejoin:miter;stroke-miterlimit:4;stroke-dasharray:none;stroke-dashoffset:0;stroke-opacity:1"
         id="path4495" />
    </g>
    <g
       transform="matrix(0,1,-1,0,268.74374,368.46659)"
       id="g4497">
      <path
         inkscape:connector-curvature="0"
         d="m 118.73529,165.44551 a 23.387255,23.387255 0 1 1 -46.774507,0 23.387255,23.387255 0 1 1 46.774507,0 z"
         transform="translate(3.5980392,-3.5980392)"
         style="fill:#ffd600;fill-opacity:1;stroke:#000000;stroke-width:3;stroke-linecap:round;stroke-linejoin:miter;stroke-miterlimit:4;stroke-dasharray:none;stroke-dashoffset:0;stroke-opacity:1"
         id="path4499" />
      <path
         inkscape:connector-curvature="0"
         d="m 118.73529,165.44551 a 23.387255,23.387255 0 1 1 -46.774507,0 23.387255,23.387255 0 1 1 46.774507,0 z"
         transform="translate(588.27941,-3.5980392)"
         style="fill:#ffd600;fill-opacity:1;stroke:#000000;stroke-width:3;stroke-linecap:round;stroke-linejoin:miter;stroke-miterlimit:4;stroke-dasharray:none;stroke-dashoffset:0;stroke-opacity:1"
         id="path4501" />
    </g>
    <text
       x="601.52264"
       y="1138.6039"
       style="font-style:normal;font-weight:normal;font-size:54.58923721px;font-family:'Bitstream Vera Sans';text-align:center;text-anchor:middle;fill:#808000;fill-opacity:1;stroke:none;stroke-width:1px;stroke-linecap:butt;stroke-linejoin:miter;stroke-opacity:1"
       id="text4503"
       xml:space="preserve"><tspan
         x="601.52264"
         y="1138.6039"
         style="font-weight:bold;font-family:Tahoma;fill:#808000"
         id="tspan4505">Magnet coils</tspan></text>
    <path
       inkscape:connector-curvature="0"
       d="m 1088.9053,699.49784 -61.1875,0 0,34.15625 -25.1875,0 0,53.96875 25.1875,0 0,34.1875 61.1875,0 0,-34.1875 0,-53.96875 0,-34.15625 z"
       style="fill:#000000;fill-opacity:1;stroke:none;stroke-width:3;stroke-linecap:round;stroke-linejoin:miter;stroke-miterlimit:4;stroke-dasharray:none;stroke-dashoffset:0;stroke-opacity:1"
       id="rect4507" />
    <text
       x="1046.1042"
       y="869.13586"
       style="font-style:normal;font-weight:normal;font-size:54.58923721px;font-family:'Bitstream Vera Sans';text-align:center;text-anchor:middle;fill:#4d4d4d;fill-opacity:1;stroke:none;stroke-width:1px;stroke-linecap:butt;stroke-linejoin:miter;stroke-opacity:1"
       id="text4512"
       xml:space="preserve"><tspan
         x="1046.1042"
         y="869.13586"
         style="font-weight:bold;font-family:Tahoma;fill:#4d4d4d;fill-opacity:1"
         id="tspan4514">Camera II</tspan></text>
    <path
       inkscape:connector-curvature="0"
       d="m 21.29288,994.74438 a 57.787577,234.0915 0 1 1 0,-468.183 57.787577,234.0915 0 0 1 0,468.183 z"
       style="fill:none;fill-opacity:1;stroke:#000000;stroke-width:13;stroke-linecap:round;stroke-linejoin:miter;stroke-miterlimit:4;stroke-dasharray:none;stroke-dashoffset:0;stroke-opacity:1"
       id="path4516" />
    <path
       inkscape:connector-curvature="0"
       d="m 24.89095,526.78032 762.78432,0 m -762.78432,467.7451 762.78432,0 m -5.3971,-467.96404 c 31.89874,0 57.78757,104.87299 57.78757,234.0915 0,129.21851 -25.88883,234.0915 -57.78757,234.0915"
       style="fill:none;fill-rule:evenodd;stroke:#000000;stroke-width:13;stroke-linecap:butt;stroke-linejoin:miter;stroke-miterlimit:4;stroke-opacity:1"
       id="path4518" />
    <path
       inkscape:connector-curvature="0"
       d="m 312.73403,994.74438 a 57.787577,234.0915 0 1 1 0,-468.183 57.787577,234.0915 0 0 1 0,468.183 z"
       style="fill:none;fill-opacity:1;stroke:#000000;stroke-width:7;stroke-linecap:round;stroke-linejoin:miter;stroke-miterlimit:4;stroke-dasharray:none;stroke-dashoffset:0;stroke-opacity:1"
       id="path4533" />
    <path
       inkscape:connector-curvature="0"
       d="m 256.96445,994.74438 c -31.89874,0 -57.78758,-104.87299 -57.78758,-234.0915 0,-129.21851 25.88884,-234.0915 57.78758,-234.0915"
       style="fill:none;fill-opacity:1;stroke:#000000;stroke-width:7;stroke-linecap:round;stroke-linejoin:miter;stroke-miterlimit:4;stroke-dashoffset:0;stroke-opacity:1"
       id="path4535" />
    <g
       transform="matrix(0,1,-1,0,913.54235,368.46659)"
       style="fill:#0000d1;fill-opacity:1;stroke:none"
       id="g4565">
      <path
         inkscape:connector-curvature="0"
         d="m -194.25,476.1875 -0.0625,10 416.61856,2.6875 0.0625,-10 -416.61856,-2.6875 z"
         style="fill:#0000d1;fill-opacity:1;fill-rule:evenodd;stroke:none;stroke-width:10;stroke-linecap:butt;stroke-linejoin:miter;stroke-miterlimit:4;stroke-dasharray:none;stroke-opacity:1"
         id="path4561" />
      <path
         inkscape:connector-curvature="0"
         d="m 210.96397,483.62957 -20.12084,19.87842 70.11993,-19.5754 -69.87751,-20.42386 19.87842,20.12084 z"
         style="fill:#0000d1;fill-opacity:1;fill-rule:evenodd;stroke:none;stroke-width:4pt;marker-start:none"
         id="path4571" />
    </g>
    <text
       x="578.20111"
       y="328.85153"
       style="font-style:normal;font-weight:normal;font-size:54.58923721px;font-family:'Bitstream Vera Sans';text-align:center;text-anchor:middle;fill:#000080;fill-opacity:1;stroke:none;stroke-width:1px;stroke-linecap:butt;stroke-linejoin:miter;stroke-opacity:1"
       id="text4573"
       xml:space="preserve"><tspan
         x="578.20111"
         y="328.85153"
         style="font-weight:bold;font-family:Tahoma;fill:#000080"
         id="tspan4575">Particles</tspan></text>
    <text
       x="113.15649"
       y="635.52203"
       style="font-style:normal;font-weight:normal;font-size:54.58923721px;font-family:'Bitstream Vera Sans';text-align:center;text-anchor:middle;fill:#4d4d4d;fill-opacity:1;stroke:none;stroke-width:1px;stroke-linecap:butt;stroke-linejoin:miter;stroke-opacity:1"
       id="text4581"
       xml:space="preserve"><tspan
         x="113.15649"
         y="635.52203"
         style="font-weight:bold;font-family:Tahoma;fill:#4d4d4d"
         id="tspan4583">Piston</tspan></text>
    <text
       x="13.981262"
       y="983.58716"
       style="font-style:normal;font-weight:normal;font-size:54.58923721px;font-family:'Bitstream Vera Sans';text-align:center;text-anchor:middle;fill:#800000;fill-opacity:1;stroke:none;stroke-width:1px;stroke-linecap:butt;stroke-linejoin:miter;stroke-opacity:1"
       id="text4585"
       xml:space="preserve"><tspan
         x="13.981262"
         y="983.58716"
         style="font-weight:bold;font-family:Tahoma;fill:#800000"
         id="tspan4587">Magnetic field</tspan></text>
    <g
       transform="matrix(0,1,-1,0,913.54235,368.46659)"
       style="fill:#ff0000;stroke:none"
       id="g4617">
      <path
         inkscape:connector-curvature="0"
         d="m 213.65625,100.72068 0,966.65432 3.5,0 0,-966.65432 -3.5,0 z"
         style="fill:#ff0000;fill-opacity:1;fill-rule:evenodd;stroke:none;stroke-width:3.5;stroke-linecap:butt;stroke-linejoin:miter;stroke-miterlimit:4;stroke-dasharray:none;stroke-opacity:1"
         id="path4611" />
      <path
         inkscape:connector-curvature="0"
         d="m 215.4175,113.89322 14,14 -14,-49.000002 -14,49.000002 14,-14 z"
         style="fill:#ff0000;fill-rule:evenodd;stroke:none;stroke-width:2.8pt;marker-start:none"
         id="path4623" />
    </g>
    <g
       transform="matrix(0,1,-1,0,913.54235,368.69381)"
       style="fill:#ff0000;stroke:none"
       id="g4625">
      <path
         inkscape:connector-curvature="0"
         d="m 272.78125,43.431377 0,969.381123 2.5,0 0,-969.381123 -2.5,0 z"
         style="fill:#ff0000;fill-opacity:1;fill-rule:evenodd;stroke:none;stroke-width:2.5;stroke-linecap:butt;stroke-linejoin:miter;stroke-miterlimit:4;stroke-dasharray:none;stroke-opacity:1"
         id="path4615" />
      <path
         inkscape:connector-curvature="0"
         d="m 274.04378,49.357142 10,10 -10,-35 -10,35 10,-10 z"
         style="fill:#ff0000;fill-rule:evenodd;stroke:none;stroke-width:2pt;marker-start:none"
         id="path4631" />
    </g>
    <g
       transform="matrix(0,1,-1,0,913.54235,486.17361)"
       style="fill:#ff0000;stroke:none"
       id="g4633">
      <path
         inkscape:connector-curvature="0"
         d="m 213.65625,102.08408 0,965.29092 3.5,0 0,-965.29092 -3.5,0 z"
         style="fill:#ff0000;fill-opacity:1;fill-rule:evenodd;stroke:none;stroke-width:3.5;stroke-linecap:butt;stroke-linejoin:miter;stroke-miterlimit:4;stroke-dasharray:none;stroke-opacity:1"
         id="path4635" />
      <path
         inkscape:connector-curvature="0"
         d="m 215.4175,113.89322 14,14 -14,-49.000002 -14,49.000002 14,-14 z"
         style="fill:#ff0000;fill-rule:evenodd;stroke:none;stroke-width:2.8pt;marker-start:none"
         id="path4637" />
    </g>
    <g
       transform="matrix(0,1,-1,0,913.54235,486.40084)"
       style="fill:#ff0000;stroke:none"
       id="g4639">
      <path
         inkscape:connector-curvature="0"
         d="m 272.78125,40.704573 0,972.107927 2.5,0 0,-972.107927 -2.5,0 z"
         style="fill:#ff0000;fill-opacity:1;fill-rule:evenodd;stroke:none;stroke-width:2.5;stroke-linecap:butt;stroke-linejoin:miter;stroke-miterlimit:4;stroke-dasharray:none;stroke-opacity:1"
         id="path4641" />
      <path
         inkscape:connector-curvature="0"
         d="m 274.04378,49.357142 10,10 -10,-35 -10,35 10,-10 z"
         style="fill:#ff0000;fill-rule:evenodd;stroke:none;stroke-width:2pt;marker-start:none"
         id="path4643" />
    </g>
    <g
       transform="matrix(0,1,-1,0,913.54235,603.88064)"
       style="fill:#ff0000;stroke:none"
       id="g4645">
      <path
         inkscape:connector-curvature="0"
         d="m 213.65625,104.81089 0,962.56411 3.5,0 0,-962.56411 -3.5,0 z"
         style="fill:#ff0000;fill-opacity:1;fill-rule:evenodd;stroke:none;stroke-width:3.5;stroke-linecap:butt;stroke-linejoin:miter;stroke-miterlimit:4;stroke-dasharray:none;stroke-opacity:1"
         id="path4647" />
      <path
         inkscape:connector-curvature="0"
         d="m 215.4175,113.89322 14,14 -14,-49.000002 -14,49.000002 14,-14 z"
         style="fill:#ff0000;fill-rule:evenodd;stroke:none;stroke-width:2.8pt;marker-start:none"
         id="path4649" />
    </g>
    <g
       transform="matrix(0,1,-1,0,913.54235,604.10787)"
       style="fill:#ff0000;stroke:none"
       id="g4651">
      <path
         inkscape:connector-curvature="0"
         d="m 272.78125,46.158181 0,966.654319 2.5,0 0,-966.654319 -2.5,0 z"
         style="fill:#ff0000;fill-opacity:1;fill-rule:evenodd;stroke:none;stroke-width:2.5;stroke-linecap:butt;stroke-linejoin:miter;stroke-miterlimit:4;stroke-dasharray:none;stroke-opacity:1"
         id="path4653" />
      <path
         inkscape:connector-curvature="0"
         d="m 274.04378,49.357142 10,10 -10,-35 -10,35 10,-10 z"
         style="fill:#ff0000;fill-rule:evenodd;stroke:none;stroke-width:2pt;marker-start:none"
         id="path4655" />
    </g>
    <g
       transform="matrix(0,1,-1,0,913.54235,721.58771)"
       style="fill:#ff0000;stroke:none"
       id="g4657">
      <path
         inkscape:connector-curvature="0"
         d="m 213.65625,100.72068 0,966.65432 3.5,0 0,-966.65432 -3.5,0 z"
         style="fill:#ff0000;fill-opacity:1;fill-rule:evenodd;stroke:none;stroke-width:3.5;stroke-linecap:butt;stroke-linejoin:miter;stroke-miterlimit:4;stroke-dasharray:none;stroke-opacity:1"
         id="path4659" />
      <path
         inkscape:connector-curvature="0"
         d="m 215.4175,113.89322 14,14 -14,-49.000002 -14,49.000002 14,-14 z"
         style="fill:#ff0000;fill-rule:evenodd;stroke:none;stroke-width:2.8pt;marker-start:none"
         id="path4661" />
    </g>
    <text
       x="621.86505"
       y="786.87488"
       style="font-style:normal;font-weight:normal;font-size:54.58923721px;font-family:'Bitstream Vera Sans';text-align:center;text-anchor:middle;fill:#0000ff;fill-opacity:1;stroke:none;stroke-width:1px;stroke-linecap:butt;stroke-linejoin:miter;stroke-opacity:1"
       id="text4577"
       xml:space="preserve"><tspan
         x="621.86505"
         y="786.87488"
         style="font-weight:bold;font-family:Tahoma;fill:#0000ff"
         id="tspan4579">Liquid</tspan></text>
    <path
       inkscape:connector-curvature="0"
       d="m 197.66394,762.95402 -0.125,-10 -128.86147,1.8125 0.125,10 128.86147,-1.8125 z"
       style="fill:#000000;fill-opacity:1;fill-rule:evenodd;stroke:none;stroke-width:10;stroke-linecap:butt;stroke-linejoin:miter;stroke-miterlimit:4;stroke-dasharray:none;stroke-opacity:1"
       id="path4589" />
    <path
       inkscape:connector-curvature="0"
       d="M 155.70947,802.8333 35.00111,760.08947 154.64462,714.44985 c -18.88475,26.32209 -18.34404,62.01746 1.06485,88.38345 z"
       style="font-size:12px;fill-rule:evenodd;stroke-width:0.625;stroke-linejoin:round"
       id="path4837" />
    <path
       inkscape:connector-curvature="0"
       d="m 1088.9053,516.92171 -61.1875,0 0,34.15625 -25.1875,0 0,53.96875 25.1875,0 0,34.1875 61.1875,0 0,-34.1875 0,-53.96875 0,-34.15625 z"
       style="fill:#000000;fill-opacity:1;stroke:none;stroke-width:3;stroke-linecap:round;stroke-linejoin:miter;stroke-miterlimit:4;stroke-dasharray:none;stroke-dashoffset:0;stroke-opacity:1"
       id="rect4507-3" />
    <text
       x="1046.1042"
       y="686.55975"
       style="font-style:normal;font-weight:normal;font-size:54.58923721px;font-family:'Bitstream Vera Sans';text-align:center;text-anchor:middle;fill:#4d4d4d;fill-opacity:1;stroke:none;stroke-width:1px;stroke-linecap:butt;stroke-linejoin:miter;stroke-opacity:1"
       id="text4512-7"
       xml:space="preserve"><tspan
         x="1046.1042"
         y="686.55975"
         style="font-weight:bold;font-family:Tahoma;fill:#4d4d4d;fill-opacity:1"
         id="tspan4514-9">Camera I</tspan></text>
    <text
       xml:space="preserve"
       style="font-style:normal;font-weight:normal;font-size:40px;line-height:125%;font-family:sans-serif;letter-spacing:0px;word-spacing:0px;fill:#000000;fill-opacity:1;stroke:none;stroke-width:1px;stroke-linecap:butt;stroke-linejoin:miter;stroke-opacity:1"
       x="1073.7178"
       y="854.302"
       id="text4347"
       sodipodi:linespacing="125%"><tspan
         sodipodi:role="line"
         id="tspan4349"
         x="1073.7178"
         y="854.302" /></text>
    <path
       inkscape:connector-curvature="0"
       d="m 1088.9053,877.61374 -61.1875,0 0,34.15625 -25.1875,0 0,53.96875 25.1875,0 0,34.1875 61.1875,0 0,-34.1875 0,-53.96875 0,-34.15625 z"
       style="fill:#000000;fill-opacity:1;stroke:none;stroke-width:3;stroke-linecap:round;stroke-linejoin:miter;stroke-miterlimit:4;stroke-dasharray:none;stroke-dashoffset:0;stroke-opacity:1"
       id="rect4507-31" />
    <text
       x="1046.1042"
       y="1047.2518"
       style="font-style:normal;font-weight:normal;font-size:54.58923721px;font-family:'Bitstream Vera Sans';text-align:center;text-anchor:middle;fill:#4d4d4d;fill-opacity:1;stroke:none;stroke-width:1px;stroke-linecap:butt;stroke-linejoin:miter;stroke-opacity:1"
       id="text4512-70"
       xml:space="preserve"><tspan
         x="1046.1042"
         y="1047.2518"
         style="font-weight:bold;font-family:Tahoma;fill:#4d4d4d;fill-opacity:1"
         id="tspan4514-4">Camera III</tspan></text>
  </g>
</svg>
